<?xml version="1.0" encoding="utf-8"?>
<!-- Generator: Adobe Illustrator 24.1.1, SVG Export Plug-In . SVG Version: 6.00 Build 0)  -->
<svg version="1.1" id="Layer_1" xmlns="http://www.w3.org/2000/svg" xmlns:xlink="http://www.w3.org/1999/xlink" x="0px" y="0px"
	 viewBox="0 0 612 792" style="enable-background:new 0 0 612 792;" xml:space="preserve">
<style type="text/css">
	.st0{fill:#313131;}
</style>
<g>
	<path class="st0" d="M338.84,462.76c-14.34,0-28.68,0.01-43.02,0c-7.14-0.01-10.3-3.13-10.3-10.16c-0.01-17.06-0.02-34.12,0-51.17
		c0.01-6.44,3.36-9.9,9.9-9.91c29.18-0.05,58.35-0.05,87.53,0c6.2,0.01,9.51,3.57,9.51,9.87c0,17.31,0,34.61-0.01,51.92
		c0,6.11-3.23,9.41-9.47,9.43C368.27,462.79,353.55,462.75,338.84,462.76z M366.25,416.5c0-1.25-0.06-2.49,0.01-3.73
		c0.21-3.45-1.92-3.72-4.6-3.68c-2.66,0.03-5.14-0.1-4.98,3.68c0.1,2.24,0.11,4.49-0.07,6.72c-0.61,7.42-4.55,12.63-11.38,15.29
		c-6.59,2.57-12.76,1.24-18.01-3.58c-4.99-4.59-6.16-10.54-5.95-17.03c0.16-4.86-0.25-4.94-5.02-5.11
		c-3.45-0.12-4.82,1.17-4.52,4.56c0.16,1.73-0.02,3.49,0.03,5.23c0.34,11.73,9.23,23.13,19.96,25.64
		C350.65,448.91,366.27,436.25,366.25,416.5z"/>
	<path class="st0" d="M356.66,382.14c-4.16,0-7.64,0-11.11,0c-19.58,0-39.15-0.01-58.73,0c-7.41,0.01-10.79,3.35-10.8,10.67
		c-0.03,19.05-0.1,38.1,0,57.15c0.02,3.08-0.83,4.05-3.99,3.99c-10.1-0.2-20.2-0.05-30.3-0.08c-6.73-0.02-10.14-3.38-10.15-10.08
		c-0.03-23.03-0.03-46.07,0-69.1c0.01-6.68,3.45-10.02,10.2-10.04c7.36-0.02,14.71-0.1,22.07,0.04c2.71,0.05,3.74-0.72,3.67-3.59
		c-0.13-5.97-0.21-11.97,0.25-17.91c1.03-13.37,13.6-24,27.3-23.44c14.03,0.58,25.55,12.12,25.59,25.66
		c0.02,5.1,0.17,10.22-0.08,15.31c-0.16,3.23,1.12,4.03,4.11,3.96c7.35-0.16,14.71-0.07,22.07-0.04c6.28,0.02,9.76,3.4,9.9,9.58
		C356.7,376.7,356.66,379.17,356.66,382.14z M280.79,364.61c8.46,0,16.77,0.06,25.07-0.11c0.67-0.01,1.86-1.55,1.89-2.41
		c0.17-5.72,0.32-11.45,0.02-17.16c-0.33-6.31-6.03-11.62-12.28-11.96c-7.5-0.42-13.83,3.61-14.54,10.43
		C280.23,350.24,280.79,357.22,280.79,364.61z"/>
</g>
</svg>
