<svg id="Layer_1" data-name="Layer 1" xmlns="http://www.w3.org/2000/svg" viewBox="0 0 160.9 143.03"><defs><style>.cls-1{fill:#fff;}</style></defs><path class="cls-1" d="M338.84,462.76q-21.51,0-43,0c-7.14,0-10.3-3.13-10.3-10.16q0-25.57,0-51.17c0-6.44,3.36-9.9,9.91-9.91q43.76-.08,87.53,0c6.2,0,9.5,3.57,9.5,9.88q0,26,0,51.92c0,6.11-3.23,9.4-9.47,9.43C368.27,462.79,353.55,462.75,338.84,462.76Zm27.41-46.26c0-1.24-.07-2.49,0-3.73.21-3.45-1.92-3.72-4.6-3.69s-5.14-.1-5,3.69a52,52,0,0,1-.07,6.72c-.61,7.42-4.55,12.63-11.37,15.29-6.6,2.57-12.77,1.24-18-3.58-5-4.6-6.16-10.54-6-17,.16-4.86-.25-4.94-5-5.11-3.46-.13-4.83,1.17-4.52,4.56.16,1.73,0,3.49,0,5.23.34,11.73,9.23,23.13,20,25.64C350.65,448.91,366.27,436.25,366.25,416.5Z" transform="translate(-231.56 -319.74)"/><path class="cls-1" d="M356.66,382.14H286.82c-7.41,0-10.79,3.35-10.8,10.67,0,19.05-.1,38.1,0,57.15,0,3.08-.83,4.05-4,4-10.09-.2-20.19-.05-30.29-.07-6.74,0-10.15-3.38-10.15-10.08q0-34.55,0-69.1c0-6.68,3.45-10,10.2-10.05,7.36,0,14.72-.1,22.07.05,2.71.05,3.74-.73,3.67-3.59-.13-6-.21-12,.25-17.91,1-13.37,13.6-24,27.3-23.44,14,.58,25.54,12.12,25.58,25.66,0,5.11.17,10.22-.08,15.31-.16,3.23,1.12,4,4.11,4,7.35-.16,14.71-.07,22.07,0,6.28,0,9.76,3.4,9.9,9.58C356.7,376.7,356.66,379.17,356.66,382.14Zm-75.87-17.53c8.46,0,16.77.06,25.07-.11.67,0,1.86-1.56,1.89-2.41.16-5.72.31-11.45,0-17.16-.33-6.31-6-11.62-12.28-12-7.5-.42-13.82,3.6-14.53,10.42S280.79,357.22,280.79,364.61Z" transform="translate(-231.56 -319.74)"/></svg>