<svg id="Layer_1" data-name="Layer 1" xmlns="http://www.w3.org/2000/svg" viewBox="0 0 612 792"><defs><style>.cls-1{fill:#fff;}</style></defs><path class="cls-1" d="M332.82,452.17c14.72,0,29.43,0,44.14,0,6.25,0,9.47-3.32,9.48-9.43q0-26,0-51.92c0-6.3-3.31-9.86-9.51-9.87q-43.77-.07-87.53,0c-6.55,0-9.9,3.48-9.9,9.91q0,25.59,0,51.18c0,7,3.16,10.15,10.3,10.16Zm17.82-80.62c0-3,.05-5.44,0-7.9-.13-6.18-3.62-9.55-9.89-9.58-7.36,0-14.72-.12-22.07,0-3,.07-4.27-.73-4.11-4,.25-5.1.09-10.21.08-15.31,0-13.55-11.56-25.09-25.59-25.67-13.69-.56-26.26,10.08-27.3,23.44-.45,5.95-.38,11.95-.24,17.91.06,2.87-1,3.64-3.68,3.59-7.35-.14-14.71-.06-22.06,0-6.75,0-10.2,3.37-10.2,10q0,34.56,0,69.1c0,6.7,3.42,10.06,10.15,10.08,10.1,0,20.2-.12,30.3.08,3.16.06,4-.92,4-4-.11-19.05,0-38.1,0-57.15,0-7.31,3.39-10.66,10.8-10.66q29.35,0,58.72,0Z"/><path class="cls-1" d="M332.82,452.17h-43c-7.14,0-10.3-3.13-10.3-10.16q0-25.59,0-51.18c0-6.43,3.35-9.89,9.9-9.91q43.77-.07,87.53,0c6.2,0,9.51,3.57,9.51,9.87q0,26,0,51.92c0,6.11-3.23,9.41-9.48,9.43C362.25,452.21,347.54,452.17,332.82,452.17Zm27.41-46.25c0-1.25-.06-2.5,0-3.74.22-3.44-1.92-3.72-4.6-3.68s-5.13-.1-5,3.68a55.79,55.79,0,0,1-.07,6.72c-.62,7.42-4.56,12.63-11.38,15.29-6.59,2.58-12.76,1.25-18-3.58-5-4.59-6.17-10.54-6-17,.16-4.86-.25-4.94-5-5.11-3.45-.12-4.82,1.17-4.51,4.57.15,1.72,0,3.48,0,5.22.34,11.73,9.22,23.13,20,25.64C344.63,438.32,360.26,425.66,360.23,405.92Z"/><path class="cls-1" d="M350.64,371.55H339.53q-29.36,0-58.72,0c-7.41,0-10.79,3.35-10.8,10.66,0,19-.11,38.1,0,57.15,0,3.08-.83,4.06-4,4-10.1-.2-20.2-.06-30.3-.08-6.73,0-10.14-3.38-10.15-10.08q0-34.54,0-69.1c0-6.67,3.45-10,10.2-10,7.35,0,14.71-.1,22.06,0,2.72.05,3.74-.72,3.68-3.59-.14-6-.21-12,.24-17.91,1-13.36,13.61-24,27.3-23.44,14,.58,25.55,12.12,25.59,25.67,0,5.1.17,10.21-.08,15.31-.16,3.23,1.11,4,4.11,4,7.35-.16,14.71-.06,22.07,0,6.27,0,9.76,3.4,9.89,9.58C350.69,366.11,350.64,368.58,350.64,371.55Zm-50.8-17.64c.68,0,1.87-1.55,1.89-2.41.17-5.71.32-11.45,0-17.16-.33-6.31-6-11.61-12.28-12-7.5-.42-13.83,3.61-14.54,10.43s-.16,13.83-.16,21.21"/></svg>