<svg id="Layer_1" data-name="Layer 1" xmlns="http://www.w3.org/2000/svg" viewBox="0 0 612 792"><defs><style>.cls-1{fill:#fff;}</style></defs><path class="cls-1" d="M421.11,319.84H398.32a37.13,37.13,0,0,1-.21-5.75c.52-4.7-1.14-6.25-6.08-6.22-33.82.22-67.64.12-101.46.12-3.16,0-6.34.14-9.49-.05s-4,1.25-4,4.16c.07,25.31.16,50.62,0,75.93,0,4.44,2.31,4.27,5.33,4.27,24.33-.05,48.65.09,73-.18,5-.06,6.25,1.53,6,6.25-.35,8.3-.22,16.63-.06,24.94.06,3.33-.82,4.73-4.47,4.72-34.31-.12-68.63.05-103-.16-15.9-.09-26.47-12.59-23.62-31,.27-1.74,3.55-3.9,5.7-4.27a50.45,50.45,0,0,1,12.94-.3c4.21.37,5-1.3,5-5.1-.13-27.65-.08-55.31-.07-83,0-12.79,7-19.88,19.73-19.89q63.72,0,127.46,0c13.52,0,20.1,6.83,20.06,20.43C421.1,309.61,421.11,314.42,421.11,319.84Z"/><path class="cls-1" d="M373.85,404.2q0-27.7,0-55.42c0-11.71,4.63-16.26,16.34-16.26h64.89c8.48,0,14,5,14,13.47q.15,57.92,0,115.83c0,9.19-5.25,13.88-14.49,13.89l-66.81.05c-8.2,0-13.64-4.9-13.72-13.15-.19-19.47-.06-38.94-.06-58.41Zm23.64-48V452h48V356.21Z"/></svg>