<svg id="Layer_1" data-name="Layer 1" xmlns="http://www.w3.org/2000/svg" viewBox="0 0 612 792"><defs><style>.cls-1{fill:#fff;}</style></defs><path class="cls-1" d="M419.09,315.65H396.3a37.13,37.13,0,0,1-.21-5.75c.52-4.7-1.14-6.25-6.08-6.22-33.82.23-67.64.12-101.46.12-3.16,0-6.34.14-9.49,0s-4,1.24-4,4.15c.07,25.32.16,50.63,0,75.94,0,4.44,2.31,4.27,5.33,4.26,24.33-.05,48.66.09,73-.18,5-.05,6.25,1.54,6,6.25-.35,8.3-.22,16.63-.06,24.95.06,3.32-.82,4.73-4.47,4.71-34.31-.12-68.63.05-103-.15-15.9-.1-26.47-12.6-23.62-31,.27-1.74,3.55-3.9,5.7-4.27a50.9,50.9,0,0,1,12.94-.3c4.21.37,5-1.3,5-5.09-.13-27.66-.08-55.32-.06-83,0-12.8,7-19.89,19.72-19.89q63.74,0,127.46,0c13.52,0,20.11,6.83,20.06,20.44C419.08,305.43,419.09,310.24,419.09,315.65Z"/><path class="cls-1" d="M371.83,400q0-27.72,0-55.42c0-11.72,4.63-16.27,16.34-16.26q32.44,0,64.89,0c8.48,0,14,5,14,13.47q.15,57.92,0,115.83c0,9.19-5.25,13.88-14.49,13.89l-66.81.05c-8.2,0-13.64-4.9-13.72-13.15C371.83,439,372,419.48,372,400Zm23.64-48v95.76h48V352Z"/></svg>